<?xml version="1.0" standalone="no"?>
<!DOCTYPE svg PUBLIC "-//W3C//DTD SVG 20010904//EN"
 "http://www.w3.org/TR/2001/REC-SVG-20010904/DTD/svg10.dtd">
<svg version="1.0" xmlns="http://www.w3.org/2000/svg"
 width="344.000000pt" height="344.000000pt" viewBox="0 0 344.000000 344.000000"
 preserveAspectRatio="xMidYMid meet">
<metadata>
Created by potrace 1.11, written by Peter Selinger 2001-2013
</metadata>
<g transform="translate(0.000000,344.000000) scale(0.100000,-0.100000)"
fill="#000000" stroke="none">
<path d="M0 1720 l0 -1720 1720 0 1720 0 0 1720 0 1720 -1720 0 -1720 0 0
-1720z m2313 1119 c-3 -54 -8 -78 -21 -91 -7 -7 -12 -19 -12 -28 0 -8 -6 -24
-14 -35 -7 -11 -26 -42 -41 -70 -62 -111 -71 -121 -119 -135 -52 -14 -96 -7
-96 16 0 9 17 48 39 87 21 40 53 99 71 132 46 85 108 163 133 167 43 7 62 -7
60 -43z m-907 12 c13 -10 20 -21 17 -25 -3 -3 -1 -6 5 -6 7 0 11 -3 10 -7 0
-5 6 -24 15 -44 9 -20 26 -75 39 -123 l23 -88 -45 -39 c-46 -40 -80 -50 -80
-25 0 8 -3 16 -7 18 -10 4 -60 146 -79 223 -18 74 -13 95 28 117 43 22 45 21
74 -1z m1479 -558 c14 -19 9 -51 -13 -75 -8 -9 -49 -31 -91 -49 -42 -17 -105
-47 -141 -65 -44 -23 -80 -35 -113 -36 -64 -2 -74 10 -49 59 23 45 30 51 92
84 25 13 52 31 62 39 9 8 38 21 65 29 26 8 53 17 58 22 29 22 112 17 130 -8z
m-2142 -29 c12 -3 36 -12 52 -19 17 -7 49 -18 72 -25 72 -22 99 -72 61 -113
-35 -37 -84 -40 -170 -10 -40 14 -78 29 -83 33 -6 5 -41 16 -77 25 -37 10 -75
23 -84 29 -15 11 -13 16 19 49 20 19 46 37 59 40 30 5 123 0 151 -9z m1112
-42 c5 -4 22 -5 37 -3 14 1 29 -2 33 -8 3 -6 17 -11 29 -11 13 0 28 -6 34 -13
6 -7 41 -33 77 -58 36 -24 65 -49 65 -55 0 -7 8 -14 18 -16 23 -6 82 -95 82
-123 0 -13 7 -40 16 -61 21 -51 21 -212 -1 -254 -8 -16 -15 -39 -15 -50 0 -12
-10 -35 -21 -52 -29 -40 -78 -143 -95 -198 -8 -25 -19 -83 -25 -130 -27 -231
-91 -354 -224 -431 -43 -25 -60 -29 -128 -29 -80 0 -94 5 -183 62 -79 51 -110
124 -144 332 -15 92 -28 145 -48 182 -127 241 -123 232 -138 377 -11 112 28
241 101 328 57 69 187 151 315 201 44 16 192 23 215 10z m-842 -794 c7 -11 6
-25 -2 -46 -17 -41 -163 -115 -246 -126 -17 -2 -42 -9 -58 -16 -63 -30 -58 42
7 93 37 30 119 74 206 110 37 16 78 9 93 -15z m1570 2 c31 -11 63 -20 72 -20
15 0 75 -25 142 -58 35 -18 57 -50 51 -77 -5 -27 -49 -55 -88 -56 -30 -1 -142
32 -205 61 -11 5 -36 12 -55 16 -19 3 -51 15 -72 26 -31 17 -37 24 -33 42 8
27 66 78 82 72 7 -3 15 -1 18 4 9 14 24 12 88 -10z"/>
<path d="M1699 2079 c-51 -8 -119 -42 -191 -97 -92 -69 -141 -218 -112 -336
20 -83 32 -114 51 -143 20 -30 48 -86 71 -143 13 -32 24 -87 38 -197 6 -41 7
-43 43 -44 46 -1 103 -6 116 -9 6 -1 53 -2 105 -1 l95 1 17 110 c10 60 22 117
27 127 5 10 22 43 36 73 14 30 40 82 58 115 28 54 31 69 31 145 0 126 -30 204
-105 280 -101 100 -179 134 -280 119z"/>
<path d="M1587 994 c-25 -25 18 -95 71 -115 43 -16 119 -10 159 13 54 30 73
48 73 68 0 15 -16 18 -122 23 -68 4 -134 9 -148 13 -14 3 -29 2 -33 -2z"/>
</g>
</svg>
